
</svg>
<svg xmlns="http://www.w3.org/2000/svg" version="1.1" xmlns:xlink="http://www.w3.org/1999/xlink" xmlns:svgjs="http://svgjs.dev/svgjs" width="1500" height="937" viewBox="0 0 1500 937"><g transform="matrix(1,0,0,1,0,0)"><svg viewBox="0 0 512 320" data-background-color="#f2a1c4" preserveAspectRatio="xMidYMid meet" height="937" width="1500" xmlns="http://www.w3.org/2000/svg" xmlns:xlink="http://www.w3.org/1999/xlink"><g id="tight-bounds" transform="matrix(1,0,0,1,0,0)"><svg viewBox="0 0 512 320" height="320" width="512"><g><svg></svg></g><g><svg viewBox="0 0 512 320" height="320" width="512"><g><path transform="translate(256,160) scale(160,160)" d="M-1 0c0-0.552 0.448-1 1-1 0.552 0 1 0.448 1 1 0 0.552-0.448 1-1 1-0.552 0-1-0.448-1-1z" fill="#014397" fill-rule="nonzero" stroke="none" stroke-width="1" stroke-linecap="butt" stroke-linejoin="miter" stroke-miterlimit="10" stroke-dasharray="" stroke-dashoffset="0" font-family="none" font-weight="none" font-size="none" text-anchor="none" style="mix-blend-mode: normal" data-fill-palette-color="tertiary"></path></g><g transform="matrix(1,0,0,1,174.55143413997223,80)"><svg viewBox="0 0 162.89713172005554 160" height="160" width="162.89713172005554"><g><svg viewBox="0 0 162.89713172005554 160" height="160" width="162.89713172005554"><g><svg viewBox="0 0 204.8 201.15762416438963" height="160" width="162.89713172005554"><g transform="matrix(1,0,0,1,0,114.25007800809551)"><svg viewBox="0 0 204.8 86.90754615629413" height="86.90754615629413" width="204.8"><g id="textblocktransform"><svg viewBox="0 0 204.8 86.90754615629413" height="86.90754615629413" width="204.8" id="textblock"><g>
<svg viewBox="0 0 204.8 50.40661157024793" height="50.40661157024793" width="204.8"><g transform="matrix(1,0,0,1,0,0)"><svg width="204.8" viewBox="2.3 -36 193.58999999999997 47.65" height="50.40661157024793" data-palette-color="#f2a1c4"><path d="M19.55 0.75L19.55 0.75Q13.2 0.75 10-3.08 6.8-6.9 6.8-13.3L6.8-13.3 6.8-28.25Q6.8-28.8 6.65-29.93 6.5-31.05 6.33-32.25 6.15-33.45 6-34.1L6-34.1 8.05-32.05 2.3-32.9 2.55-35.5Q3.5-35.45 4.65-35.4 5.8-35.35 6.83-35.3 7.85-35.25 8.3-35.25L8.3-35.25Q9.2-35.25 10.58-35.3 11.95-35.35 13.3-35.4 14.65-35.45 15.45-35.5L15.45-35.5 15.65-32.65 9.95-32.15 11.8-34.1Q11.75-33.55 11.63-32.3 11.5-31.05 11.4-29.55 11.3-28.05 11.3-26.75L11.3-26.75 11.3-13.3Q11.3-10.1 12.25-7.6 13.2-5.1 15.15-3.68 17.1-2.25 20-2.25L20-2.25Q23.05-2.25 25.03-3.7 27-5.15 28-7.65 29-10.15 29-13.3L29-13.3 29-28.25Q29-28.65 28.9-29.5 28.8-30.35 28.65-31.33 28.5-32.3 28.38-33.08 28.25-33.85 28.2-34.1L28.2-34.1 30.4-32 24.55-32.9 24.8-35.5Q26.2-35.45 27.75-35.35 29.3-35.25 30.05-35.25L30.05-35.25Q31.65-35.25 33.4-35.35 35.15-35.45 36.55-35.5L36.55-35.5 36.75-32.65 31.05-32.15 32.9-34.1Q32.85-33.55 32.73-32.3 32.6-31.05 32.5-29.55 32.4-28.05 32.4-26.75L32.4-26.75 32.4-13.3Q32.4-6.9 29.18-3.08 25.95 0.75 19.55 0.75ZM40.9 11.65L40.9 11.65 40.65 9.2 45.7 8.05 43.7 9.95Q43.8 9.55 43.97 8.55 44.15 7.55 44.32 6.43 44.5 5.3 44.5 4.7L44.5 4.7 44.5-17.8Q44.5-18.45 44.32-19.58 44.15-20.7 43.95-21.83 43.75-22.95 43.65-23.45L43.65-23.45 45.7-21.15 40.2-22.1 40.45-24.7 46.65-24.7 47.6-23.8 48-18.95 47.7-19.75Q47.85-21.1 49-22.33 50.15-23.55 51.75-24.33 53.35-25.1 54.8-25.1L54.8-25.1Q59.7-25.1 62.42-21.88 65.15-18.65 65.15-12.8L65.15-12.8Q65.15-9 63.65-5.98 62.15-2.95 59.57-1.23 57 0.5 53.75 0.5L53.75 0.5Q52.25 0.5 50.65 0.03 49.05-0.45 47.5-1.25L47.5-1.25 47.55-4.8Q49.05-3.55 50.57-2.95 52.1-2.35 53.5-2.35L53.5-2.35Q57.1-2.35 59.05-5.05 61-7.75 61-12.75L61-12.75Q61-17.5 59.37-19.93 57.75-22.35 54.65-22.35L54.65-22.35Q51.75-22.35 50-20.13 48.25-17.9 48.25-14.3L48.25-14.3 48.25 3.2Q48.25 5.15 48.42 7.2 48.6 9.25 48.75 10.15L48.75 10.15 46.9 8.25 53.6 8.75 53.3 11.4 45.85 11.4Q45.35 11.4 44.52 11.45 43.7 11.5 42.75 11.55 41.8 11.6 40.9 11.65ZM81.9 0.75L81.9 0.75Q78.25 0.75 75.3-0.15 72.35-1.05 70.95-1.9L70.95-1.9 71.7-9.45 74.95-9.15 74.95-6.85Q74.95-6.6 75.02-6.03 75.1-5.45 75.2-4.78 75.3-4.1 75.42-3.53 75.55-2.95 75.65-2.65L75.65-2.65 74.75-3.8Q76.05-3.15 77.97-2.63 79.9-2.1 82.05-2.1L82.05-2.1Q85.15-2.1 86.95-3.78 88.75-5.45 88.75-8.5L88.75-8.5Q88.75-10.6 87.5-12.03 86.25-13.45 84.3-14.58 82.35-15.7 80.17-16.75 78-17.8 76.05-19.13 74.1-20.45 72.85-22.3 71.6-24.15 71.6-26.8L71.6-26.8Q71.6-29.8 73.02-31.85 74.45-33.9 76.9-34.95 79.35-36 82.4-36L82.4-36Q84.85-36 87.45-35.5 90.05-35 92.45-34.4L92.45-34.4 91.75-27 88.85-27.35 88.85-29.45Q88.85-29.8 88.7-30.53 88.55-31.25 88.35-32.08 88.15-32.9 87.95-33.55L87.95-33.55 89.35-31.7Q87.2-32.85 85.7-33.13 84.2-33.4 82.15-33.4L82.15-33.4Q79.85-33.4 78.12-31.98 76.4-30.55 76.4-27.75L76.4-27.75Q76.4-25.75 77.65-24.38 78.9-23 80.9-21.88 82.9-20.75 85.1-19.65 87.3-18.55 89.3-17.15 91.3-15.75 92.55-13.8 93.8-11.85 93.8-9L93.8-9Q93.8-5.7 92.2-3.55 90.6-1.4 87.9-0.33 85.2 0.75 81.9 0.75ZM105.99 0.25L105.99 0.25 105.74-2.2 111.94-3.35 109.99-1.4Q110.09-1.85 110.24-2.93 110.39-4 110.54-5.13 110.69-6.25 110.69-6.75L110.69-6.75 110.69-28.5Q110.69-29.05 110.54-30.13 110.39-31.2 110.24-32.3 110.09-33.4 109.99-33.9L109.99-33.9 115.49-33.9Q115.44-33.5 115.32-32.35 115.19-31.2 115.09-29.75 114.99-28.3 114.99-27L114.99-27 114.99-8.25Q114.99-6.95 115.09-5.63 115.19-4.3 115.32-3.18 115.44-2.05 115.54-1.4L115.54-1.4 113.64-3.15 120.39-2.65 120.04 0 113.14 0Q112.59 0 111.34 0.05 110.09 0.1 108.64 0.15 107.19 0.2 105.99 0.25ZM101.39-26.2L101.39-26.2 98.49-26.45 98.84-34.6 99.79-35.5Q100.74-35.45 101.89-35.4 103.04-35.35 104.04-35.3 105.04-35.25 105.49-35.25L105.49-35.25 120.14-35.25Q120.59-35.25 121.57-35.3 122.54-35.35 123.72-35.4 124.89-35.45 125.84-35.5L125.84-35.5 126.79-34.6 127.14-26.45 124.29-26.2Q124.24-26.9 124.12-27.75 123.99-28.6 123.87-29.35 123.74-30.1 123.59-30.45L123.59-30.45 121.89-33.85 123.94-32.25Q123.19-32.35 121.57-32.45 119.94-32.55 118.64-32.55L118.64-32.55 106.99-32.55Q106.14-32.55 105.09-32.48 104.04-32.4 103.12-32.35 102.19-32.3 101.64-32.25L101.64-32.25 103.74-33.85 102.04-30.45Q101.89-29.9 101.69-28.55 101.49-27.2 101.39-26.2ZM128.99 0.25L128.99 0.25 128.79-2.1 133.59-3.45 131.59-2.2Q131.94-2.95 132.42-3.88 132.89-4.8 133.37-5.88 133.84-6.95 134.19-8L134.19-8 143.04-35.25 145.79-35.75 156.14-7.55Q156.59-6.15 157.27-4.8 157.94-3.45 158.49-2.25L158.49-2.25 156.39-3.5 161.24-2.65 160.99 0 155.89 0Q155.29 0 154.09 0.05 152.89 0.1 151.52 0.15 150.14 0.2 148.94 0.25L148.94 0.25 148.79-2.1 154.09-3.7 152.69-2.05Q152.39-3.85 152.04-5.48 151.69-7.1 151.04-8.75L151.04-8.75 143.59-29.65 144.64-29.65 137.19-6.4Q136.84-5.35 136.74-4.23 136.64-3.1 136.54-2.1L136.54-2.1 134.99-3.4 140.24-2.65 139.99 0 135.74 0Q135.14 0 133.97 0.05 132.79 0.1 131.47 0.15 130.14 0.2 128.99 0.25ZM151.74-11.25L137.59-11.25 137.59-13.8 151.74-13.8 151.74-11.25ZM166.64 0.25L166.64 0.25 166.39-2.2 172.09-3.35 170.14-1.4Q170.24-1.85 170.39-2.93 170.54-4 170.69-5.13 170.84-6.25 170.84-6.75L170.84-6.75 170.84-28.5Q170.84-29.05 170.71-30.13 170.59-31.2 170.41-32.3 170.24-33.4 170.14-33.9L170.14-33.9 172.09-32 166.49-32.9 166.74-35.5Q167.69-35.45 168.84-35.4 169.99-35.35 171.01-35.3 172.04-35.25 172.49-35.25L172.49-35.25 175.69-33.9Q175.64-33.5 175.51-32.35 175.39-31.2 175.26-29.75 175.14-28.3 175.14-27L175.14-27 175.14-8.25Q175.14-6.95 175.24-5.63 175.34-4.3 175.49-3.18 175.64-2.05 175.74-1.4L175.74-1.4 173.79-3.15 180.14-2.65 179.79 0 173.34 0Q172.74 0 171.59 0.05 170.44 0.1 169.11 0.15 167.79 0.2 166.64 0.25ZM195.54 0L187.79 0Q187.34-1 186.76-2.2 186.19-3.4 185.69-4.4 185.19-5.4 184.99-5.8L184.99-5.8 178.94-17.25 183.64-17.45Q184.99-14.8 186.31-12.4 187.64-10 188.61-8.4 189.59-6.8 189.74-6.55L189.74-6.55Q190.09-6 190.84-4.93 191.59-3.85 192.24-3L192.24-3 195.89-2.65 195.54 0ZM179.74-15.15L179.74-15.15Q177.74-15.15 175.74-15.2 173.74-15.25 171.74-15.35L171.74-15.35 171.74-18.2Q173.49-18 175.24-17.75 176.99-17.5 178.74-17.5L178.74-17.5Q182.64-17.5 184.99-19.48 187.34-21.45 187.34-25.4L187.34-25.4Q187.34-29.2 184.99-31.15 182.64-33.1 178.74-33.1L178.74-33.1Q177.84-33.1 176.79-33.05 175.74-33 174.66-32.88 173.59-32.75 172.49-32.6L172.49-32.6 172.49-35.25Q174.54-35.25 176.64-35.38 178.74-35.5 180.79-35.5L180.79-35.5Q184.24-35.5 186.69-34.38 189.14-33.25 190.46-31 191.79-28.75 191.79-25.4L191.79-25.4Q191.79-22.15 190.16-19.85 188.54-17.55 185.79-16.35 183.04-15.15 179.74-15.15Z" opacity="1" transform="matrix(1,0,0,1,0,0)" fill="#f2a1c4" class="wordmark-text-0" data-fill-palette-color="quaternary" id="text-0"></path></svg></g></svg></g><g transform="matrix(1,0,0,1,0,57.76214595702479)"><svg viewBox="0 0 204.8 29.14540019926935" height="29.14540019926935" width="204.8"><g transform="matrix(1,0,0,1,0,0)">
<svg width="204.8" viewBox="3.78 -33.48 301.07000000000005 42.86" height="29.14540019926935" data-palette-color="#f2a1c4"><path d="M17.05 0L6.6 0 6.6-3.43 16.65-3.43Q19.9-3.43 21.26-4.81 22.63-6.2 22.63-8.65L22.63-8.65 22.63-9.55Q22.63-12.05 21.24-13.43 19.85-14.8 16.4-14.8L16.4-14.8 6.63-14.8 6.63-18.07 16.35-18.07Q19.43-18.07 20.74-19.41 22.05-20.75 22.05-23.13L22.05-23.13 22.05-23.58Q22.05-25.93 20.79-27.24 19.53-28.55 16.32-28.55L16.32-28.55 6.53-28.55 6.53-31.95 16.7-31.95Q21.8-31.95 24-29.93 26.2-27.9 26.2-24.23L26.2-24.23 26.2-23.73Q26.2-20.8 24.8-19.13 23.4-17.45 20.45-17.13L20.45-17.13 20.43-16.98Q23.8-16.48 25.33-14.63 26.85-12.78 26.85-9.47L26.85-9.47 26.85-8.45Q26.85-4.48 24.55-2.24 22.25 0 17.05 0L17.05 0ZM7.88 0L3.78 0 3.78-31.95 7.88-31.95 7.88 0ZM42.65 0.55L42.65 0.55Q37.07 0.55 34.25-2.18 31.42-4.9 31.42-9.98L31.42-9.98 31.42-14.33Q31.42-19.48 34.05-22.26 36.67-25.05 41.72-25.05L41.72-25.05Q45.12-25.05 47.4-23.79 49.67-22.53 50.82-20.2 51.97-17.88 51.97-14.65L51.97-14.65 51.97-13.75Q51.97-12.95 51.91-12.15 51.85-11.35 51.75-10.58L51.75-10.58 48.02-10.58Q48.07-11.78 48.09-12.85 48.1-13.93 48.1-14.83L48.1-14.83Q48.1-17.05 47.39-18.59 46.67-20.13 45.26-20.94 43.85-21.75 41.72-21.75L41.72-21.75Q38.57-21.75 37-19.93 35.42-18.1 35.42-14.7L35.42-14.7 35.42-12.38 35.45-11.88 35.45-9.55Q35.45-8.03 35.9-6.8 36.35-5.58 37.31-4.69 38.27-3.8 39.76-3.34 41.25-2.88 43.3-2.88L43.3-2.88Q45.67-2.88 47.72-3.5 49.77-4.13 51.57-5.2L51.57-5.2 51.2-1.7Q49.57-0.68 47.42-0.06 45.27 0.55 42.65 0.55ZM50.9-10.58L33.55-10.58 33.55-13.63 50.9-13.63 50.9-10.58ZM65.07 0.55L65.07 0.55Q62.12 0.55 59.92-0.09 57.72-0.73 56.27-1.48L56.27-1.48 55.9-5.23Q57.72-4.28 59.91-3.58 62.1-2.88 64.87-2.88L64.87-2.88Q67.7-2.88 69.12-3.78 70.55-4.67 70.55-6.45L70.55-6.45 70.55-6.73Q70.55-7.88 70.01-8.63 69.47-9.38 68.07-9.95 66.67-10.53 64.1-11.1L64.1-11.1Q61.02-11.78 59.25-12.69 57.47-13.6 56.71-14.95 55.95-16.3 55.95-18.25L55.95-18.25 55.95-18.48Q55.95-21.68 58.17-23.33 60.4-24.98 64.87-24.98L64.87-24.98Q67.75-24.98 69.86-24.33 71.97-23.68 73.32-22.88L73.32-22.88 73.7-19.45Q72.07-20.4 69.97-21.03 67.87-21.65 65.25-21.65L65.25-21.65Q63.35-21.65 62.17-21.26 61-20.88 60.47-20.16 59.95-19.45 59.95-18.45L59.95-18.45 59.95-18.25Q59.95-17.15 60.47-16.39 61-15.63 62.36-15.06 63.72-14.5 66.15-13.98L66.15-13.98Q69.27-13.35 71.11-12.48 72.95-11.6 73.75-10.26 74.55-8.93 74.55-6.83L74.55-6.83 74.55-6.4Q74.55-2.95 72.15-1.2 69.75 0.55 65.07 0.55ZM88.24 0.5L88.24 0.5Q85.42 0.5 83.69-0.35 81.97-1.2 81.19-2.93 80.42-4.65 80.42-7.23L80.42-7.23 80.42-22.63 84.42-22.63 84.42-7.7Q84.42-5.3 85.52-4.16 86.62-3.03 89.22-3.03L89.22-3.03Q90.69-3.03 92.06-3.35 93.42-3.68 94.62-4.28L94.62-4.28 94.24-0.8Q93.07-0.2 91.49 0.15 89.92 0.5 88.24 0.5ZM93.99-20.8L76.42-20.8 76.42-24.05 94.37-24.05 93.99-20.8ZM84.32-23.65L80.44-23.65 80.42-30.5 84.49-31.03 84.32-23.65ZM122.41 0.58L122.41 0.58Q120.11 0.58 118.2 0.2 116.29-0.18 114.79-0.73 113.29-1.28 112.29-1.83L112.29-1.83 111.86-5.95Q113.79-4.8 116.4-3.94 119.01-3.08 122.09-3.08L122.09-3.08Q125.79-3.08 127.56-4.39 129.34-5.7 129.34-8.33L129.34-8.33 129.34-8.72Q129.34-10.45 128.64-11.55 127.94-12.65 126.28-13.4 124.61-14.15 121.76-14.8L121.76-14.8Q118.16-15.65 116-16.81 113.84-17.98 112.88-19.73 111.91-21.48 111.91-24.08L111.91-24.08 111.91-24.3Q111.91-28.23 114.49-30.36 117.06-32.5 122.29-32.5L122.29-32.5Q125.71-32.5 128.13-31.8 130.54-31.1 132.06-30.25L132.06-30.25 132.44-26.45Q130.66-27.5 128.3-28.24 125.94-28.98 122.89-28.98L122.89-28.98Q120.46-28.98 118.96-28.4 117.46-27.83 116.79-26.75 116.11-25.68 116.11-24.15L116.11-24.15 116.11-24.05Q116.11-22.5 116.78-21.4 117.44-20.3 119.1-19.5 120.76-18.7 123.84-17.95L123.84-17.95Q127.36-17.13 129.49-16.05 131.61-14.98 132.58-13.25 133.54-11.53 133.54-8.75L133.54-8.75 133.54-8.22Q133.54-3.9 130.75-1.66 127.96 0.58 122.41 0.58ZM159.46 0L155.41 0 155.41-15.18Q155.41-17.15 154.87-18.57 154.34-20 153.12-20.79 151.91-21.58 149.81-21.58L149.81-21.58Q147.89-21.58 146.49-20.85 145.09-20.13 144.22-18.89 143.36-17.65 143.01-16.07L143.01-16.07 142.11-18.95 143.16-18.95Q143.54-20.6 144.54-21.96 145.54-23.33 147.22-24.14 148.91-24.95 151.34-24.95L151.34-24.95Q154.24-24.95 156.02-23.85 157.81-22.75 158.64-20.69 159.46-18.63 159.46-15.63L159.46-15.63 159.46 0ZM143.14 0L139.09 0 139.09-33.13 143.11-33.13 143.11-25.18 142.99-18.18 143.14-17.85 143.14 0ZM175.43 0.63L175.43 0.63Q170.18 0.63 167.47-2.21 164.76-5.05 164.76-10.38L164.76-10.38 164.76-14.1Q164.76-19.4 167.48-22.23 170.21-25.05 175.43-25.05L175.43-25.05Q180.68-25.05 183.4-22.23 186.11-19.4 186.11-14.1L186.11-14.1 186.11-10.38Q186.11-5.05 183.4-2.21 180.68 0.63 175.43 0.63ZM175.43-2.68L175.43-2.68Q178.68-2.68 180.37-4.6 182.06-6.53 182.06-10.15L182.06-10.15 182.06-14.33Q182.06-17.93 180.37-19.84 178.68-21.75 175.43-21.75L175.43-21.75Q172.21-21.75 170.51-19.84 168.81-17.93 168.81-14.33L168.81-14.33 168.81-10.15Q168.81-6.53 170.51-4.6 172.21-2.68 175.43-2.68ZM203.76 0.53L203.76 0.53Q201.51 0.53 199.86-0.23 198.21-0.98 197.18-2.38 196.16-3.78 195.81-5.63L195.81-5.63 194.48-5.63 195.66-9.43Q195.76-7.23 196.64-5.76 197.53-4.3 199.06-3.58 200.58-2.85 202.51-2.85L202.51-2.85Q205.58-2.85 207.22-4.65 208.86-6.45 208.86-9.93L208.86-9.93 208.86-14.6Q208.86-18.05 207.23-19.85 205.61-21.65 202.51-21.65L202.51-21.65Q200.66-21.65 199.23-20.93 197.81-20.2 196.87-18.95 195.93-17.7 195.58-16.1L195.58-16.1 194.58-18.93 195.76-18.93Q196.16-20.6 197.12-21.96 198.08-23.33 199.77-24.14 201.46-24.95 203.93-24.95L203.93-24.95Q208.33-24.95 210.63-22.21 212.93-19.48 212.93-14.28L212.93-14.28 212.93-10.23Q212.93-4.98 210.62-2.23 208.31 0.53 203.76 0.53ZM195.76 8.6L191.73 8.6 191.73-24.4 195.78-24.4 195.61-18.53 195.66-17.28 195.66-7 195.63-6.18 195.76 0.68 195.76 8.6ZM230.6 0.53L230.6 0.53Q228.35 0.53 226.7-0.23 225.05-0.98 224.03-2.38 223-3.78 222.65-5.63L222.65-5.63 221.33-5.63 222.5-9.43Q222.6-7.23 223.49-5.76 224.38-4.3 225.9-3.58 227.43-2.85 229.35-2.85L229.35-2.85Q232.43-2.85 234.07-4.65 235.7-6.45 235.7-9.93L235.7-9.93 235.7-14.6Q235.7-18.05 234.08-19.85 232.45-21.65 229.35-21.65L229.35-21.65Q227.5-21.65 226.08-20.93 224.65-20.2 223.72-18.95 222.78-17.7 222.43-16.1L222.43-16.1 221.43-18.93 222.6-18.93Q223-20.6 223.97-21.96 224.93-23.33 226.62-24.14 228.3-24.95 230.78-24.95L230.78-24.95Q235.18-24.95 237.48-22.21 239.78-19.48 239.78-14.28L239.78-14.28 239.78-10.23Q239.78-4.98 237.47-2.23 235.15 0.53 230.6 0.53ZM222.6 8.6L218.58 8.6 218.58-24.4 222.63-24.4 222.45-18.53 222.5-17.28 222.5-7 222.48-6.18 222.6 0.68 222.6 8.6ZM249.55 0L245.5 0 245.5-24.4 249.55-24.4 249.55 0ZM247.53-28.4L247.53-28.4Q246.28-28.4 245.66-29.06 245.05-29.73 245.05-30.88L245.05-30.88 245.05-31Q245.05-32.18 245.66-32.83 246.28-33.48 247.53-33.48L247.53-33.48Q248.78-33.48 249.4-32.83 250.03-32.18 250.03-31L250.03-31 250.03-30.88Q250.03-29.7 249.4-29.05 248.78-28.4 247.53-28.4ZM276.62 0L272.57 0 272.57-15.18Q272.57-17.15 272.04-18.57 271.5-20 270.29-20.79 269.07-21.58 266.97-21.58L266.97-21.58Q265.05-21.58 263.63-20.85 262.22-20.13 261.35-18.89 260.47-17.65 260.12-16.07L260.12-16.07 259.4-18.95 260.27-18.95Q260.67-20.6 261.67-21.96 262.67-23.33 264.36-24.14 266.05-24.95 268.5-24.95L268.5-24.95Q271.4-24.95 273.19-23.85 274.97-22.75 275.8-20.69 276.62-18.63 276.62-15.63L276.62-15.63 276.62 0ZM260.3 0L256.25 0 256.25-24.4 260.3-24.4 260.12-18.55 260.3-18.32 260.3 0ZM292.4-7.3L292.4-7.3Q287.42-7.3 284.76-9.47 282.1-11.65 282.1-15.7L282.1-15.7 282.1-16.32Q282.1-18.85 283.13-20.73 284.17-22.6 286.45-23.66 288.72-24.73 292.4-24.83L292.4-24.83 304.85-25.23 304.85-22.03 297.5-22.28 297.47-22.1Q299.2-21.75 300.3-20.9 301.4-20.05 301.93-18.78 302.47-17.5 302.47-15.8L302.47-15.8 302.47-15.25Q302.47-11.38 299.92-9.34 297.37-7.3 292.4-7.3ZM292.22 6.15L292.22 6.15 292.8 6.15Q295.05 6.15 296.66 5.81 298.27 5.48 299.15 4.75 300.02 4.03 300.02 2.83L300.02 2.83 300.02 2.73Q300.02 1.33 299.01 0.59 298-0.15 295.55-0.38L295.55-0.38 288.65-1 289.8-1.05Q288.4-0.85 287.33-0.4 286.27 0.05 285.67 0.79 285.07 1.53 285.07 2.63L285.07 2.63 285.07 2.68Q285.07 3.95 285.95 4.73 286.82 5.5 288.42 5.83 290.02 6.15 292.22 6.15ZM292.72 9.38L292 9.38Q288.7 9.38 286.31 8.81 283.92 8.25 282.61 6.99 281.3 5.73 281.3 3.6L281.3 3.6 281.3 3.5Q281.3 2 282.01 1 282.72 0 283.93-0.58 285.15-1.15 286.65-1.35L286.65-1.35 286.62-1.5Q284.57-1.85 283.6-2.71 282.62-3.58 282.62-4.95L282.62-4.95 282.62-4.98Q282.62-5.93 283.06-6.6 283.5-7.28 284.38-7.68 285.27-8.08 286.65-8.18L286.65-8.18 286.65-8.68 291.3-7.5 289.4-7.55Q287.7-7.53 287.05-7.14 286.4-6.75 286.4-5.98L286.4-5.98 286.4-5.95Q286.4-5.13 287.32-4.7 288.25-4.28 290.47-4.03L290.47-4.03 296.4-3.43Q300.27-3.03 302.05-1.56 303.82-0.1 303.82 2.75L303.82 2.75 303.82 2.88Q303.82 5.15 302.47 6.6 301.12 8.05 298.65 8.71 296.17 9.38 292.72 9.38L292.72 9.38ZM292.35-10.3L292.35-10.3Q294.45-10.3 295.83-10.91 297.22-11.53 297.93-12.76 298.65-14 298.65-15.8L298.65-15.8 298.65-16.4Q298.65-18.15 297.96-19.38 297.27-20.6 295.9-21.24 294.52-21.88 292.45-21.88L292.45-21.88 292.3-21.88Q290.05-21.88 288.63-21.19 287.22-20.5 286.58-19.26 285.95-18.03 285.95-16.38L285.95-16.38 285.95-15.8Q285.95-14 286.66-12.78 287.37-11.55 288.8-10.93 290.22-10.3 292.35-10.3Z" opacity="1" transform="matrix(1,0,0,1,0,0)" fill="#f2a1c4" class="slogan-text-1" data-fill-palette-color="quaternary" id="text-1"></path></svg></g></svg></g></svg></g></svg></g><g transform="matrix(1,0,0,1,56.47936762446617,0)"><svg viewBox="0 0 91.84126475106767 106.89454362131866" height="106.89454362131866" width="91.84126475106767"><g><svg xmlns="http://www.w3.org/2000/svg" xmlns:xlink="http://www.w3.org/1999/xlink" version="1.1" x="0" y="0" viewBox="14.449998423947612 39.89167440259789 82.14183769467473 95.60532813205418" enable-background="new 0 38.5 100 100" xml:space="preserve" height="106.89454362131866" width="91.84126475106767" class="icon-icon-0" data-fill-palette-color="quaternary" id="icon-0"><path d="M43.517 78.828c-1.988 0.263-3.477-0.03-4.424-0.87-1.125-0.998-1.128-2.497-1.129-2.527 0.007-0.396-0.308-0.724-0.703-0.731-0.006-0.002-0.013-0.001-0.019-0.001-0.389 0.001-0.708 0.312-0.716 0.704-0.002 0.087-0.029 2.163 1.594 3.617 1 0.896 2.372 1.345 4.094 1.341 0.471-0.002 0.969-0.036 1.491-0.106 0.394-0.053 0.671-0.413 0.62-0.807C44.272 79.053 43.908 78.776 43.517 78.828z" fill="#f2a1c4" data-fill-palette-color="quaternary"></path><path d="M96.429 56.969c-1.904 0.794-6.537-1.955-7.091-2.15-2.177-0.673-6.88-16.421-20.685-14.812-11.587 1.351-17.307 6.494-18.846 8.112-0.947-0.123-1.914-0.186-2.894-0.184-7.723 0.02-14.752 4.087-18.631 10.7-0.657-0.449-1.377-0.681-2.127-0.679-2.818 0.007-5.017 3.297-5.007 7.491 0.009 3.867 1.895 6.958 4.397 7.409 1.588 10.579 10.679 18.438 21.473 18.412 8.442-0.021 15.987-4.859 19.547-12.429 0.529 0.274 1.092 0.415 1.667 0.414 2.732-0.007 4.864-3.13 4.854-7.108s-2.157-7.09-4.889-7.083c-0.015 0-0.03 0-0.046 0-1.141-5.381-4.212-9.934-8.411-12.989 4.163 1.619 8.973 3.782 13.222 6.444C83.148 64.894 98.331 56.176 96.429 56.969zM66.437 66.319l0.186 1.109 1.066-0.358c0.174-0.059 0.348-0.088 0.515-0.089 1.6-0.003 2.956 2.363 2.963 5.169 0.007 2.805-1.339 5.178-2.938 5.183-0.479 0-0.948-0.22-1.396-0.655l-1.023-0.998-0.536 1.325c-3.027 7.478-10.194 12.322-18.258 12.342-10.088 0.024-18.543-7.507-19.667-17.52l-0.104-0.928-0.931 0.078-0.126 0.014c-1.683 0.005-3.111-2.537-3.117-5.551-0.008-3.013 1.407-5.562 3.09-5.565 0.72-0.002 1.298 0.492 1.656 0.906l0.931 1.077 0.65-1.266c0.95-1.85 2.167-3.494 3.58-4.917 6.32 0.604 25.367 2.883 32.057 8.879-2.762-5.394-4.524-8.812-6.726-11.145C62.515 56.351 65.532 60.912 66.437 66.319z" fill="#f2a1c4" data-fill-palette-color="quaternary"></path><path d="M46.649 65.146c4.627 12.857 13.795 2.877 15.007-2.028C58.754 66.188 46.649 65.146 46.649 65.146z" fill="#f2a1c4" data-fill-palette-color="quaternary"></path><path d="M31.631 63.111c1.237 4.898 10.453 14.834 15.019 1.954C46.649 65.065 34.549 66.168 31.631 63.111z" fill="#f2a1c4" data-fill-palette-color="quaternary"></path><path d="M35.95 105.15l-6.079 0.016-0.002-0.941h0.036c1.647-0.004 2.984-1.474 2.98-3.277-0.002-0.662-0.188-1.303-0.531-1.844 0.34-0.542 0.523-1.184 0.522-1.847-0.002-0.662-0.188-1.304-0.531-1.845 0.34-0.542 0.523-1.185 0.522-1.846-0.001-0.663-0.188-1.304-0.532-1.846 0.341-0.541 0.524-1.184 0.522-1.847-0.004-1.68-1.177-3.05-2.668-3.227 0.003-0.976-0.31-1.995-0.729-2.722-0.602-1.041-1.448-1.667-2.414-1.767-0.861-0.06-1.664 0.249-2.35 0.894-0.017 0.017-0.031 0.035-0.048 0.05-0.565 0.552-1.046 1.359-1.457 2.345-0.156 0.371-0.301 0.766-0.436 1.182l-0.51 0.002c-0.485 0-0.97 0.138-1.407 0.396-0.889 0.302-1.694 0.76-2.396 1.334-0.247 0.204-0.485 0.417-0.707 0.649-0.256 0.268-0.492 0.556-0.707 0.858-0.964 1.347-1.517 3.009-1.513 4.783l0.004 1.603c0.004 1.774 0.566 3.431 1.535 4.773 0.217 0.301 0.453 0.588 0.711 0.854 0.221 0.23 0.46 0.444 0.71 0.646 0.683 0.554 1.461 0.997 2.32 1.295-0.003 0.591 0 1.023 0.002 1.245l0.002 0.119-2.318 0.005-0.709 0.002-0.708 0.002-1.553 0.004c-0.587 0.001-1.062 0.478-1.061 1.065l0.066 27.82 0.001 0.354c0.001 0.125 0.026 0.243 0.067 0.355 0.147 0.411 0.538 0.706 1 0.705l2.97-0.007 17.465-0.042c0.587-0.002 1.062-0.479 1.061-1.066l-0.068-28.174C37.014 105.624 36.537 105.149 35.95 105.15zM25.885 84.905c0.087-0.111 0.176-0.218 0.268-0.304 0.328-0.309 0.565-0.334 0.708-0.324 0.225 0.022 0.521 0.303 0.759 0.713 0.31 0.537 0.454 1.155 0.456 1.627l-3.088 0.007c0.168-0.448 0.347-0.845 0.539-1.183C25.64 85.238 25.761 85.063 25.885 84.905zM24.31 88.945l5.079-0.012 0.113 0.051 0.022-0.052h0.343c0.362 0 0.669 0.433 0.67 0.947 0 0.365-0.162 0.705-0.416 0.865-0.339 0.214-0.542 0.582-0.541 0.982 0.001 0.402 0.205 0.769 0.545 0.982 0.254 0.157 0.419 0.496 0.42 0.862 0 0.364-0.162 0.703-0.417 0.863-0.338 0.215-0.541 0.582-0.54 0.983s0.205 0.769 0.545 0.981c0.254 0.159 0.418 0.496 0.419 0.862 0.001 0.364-0.161 0.704-0.416 0.864-0.339 0.215-0.541 0.582-0.54 0.983 0.001 0.4 0.205 0.768 0.544 0.981 0.254 0.158 0.419 0.496 0.42 0.861 0.001 0.515-0.304 0.951-0.666 0.951l-6.946 0.018C23.06 97.67 23.469 92.584 24.31 88.945zM22.925 104.242l4.818-0.012 0.002 0.94-4.817 0.011-0.002-0.137C22.923 104.788 22.925 104.511 22.925 104.242zM18.469 98.842c-0.394-0.787-0.625-1.67-0.627-2.594l-0.003-1.602c-0.002-0.934 0.219-1.831 0.614-2.627 0.661-1.332 1.812-2.378 3.233-2.828 0.106-0.034 0.207-0.082 0.3-0.145 0.05-0.033 0.097-0.058 0.144-0.073-0.886 4.009-1.188 8.96-1.287 12.344C19.814 100.775 18.994 99.896 18.469 98.842zM34.954 133.327l-16.402 0.039-0.708 0.002-0.709 0.002-0.489 0.001-0.063-26.048 0.49-0.001 0.458-0.001c0.079 0.034 0.168 0.07 0.25 0.104 0.222 0.094 0.458 0.188 0.71 0.281 3.206 1.2 8.752 2.312 15.398-0.425l1.003-0.001L34.954 133.327z" fill="#f2a1c4" data-fill-palette-color="quaternary"></path><path d="M79.697 105.12l-5.288 0.013 0.001-0.118c0.002-0.211 0.002-0.615-0.002-1.158 3.146-1.104 5.247-4.136 5.239-7.594l-0.005-1.602c-0.008-3.488-2.158-6.534-5.357-7.6-0.438-0.256-0.924-0.391-1.408-0.39l-0.48 0.001c-0.52-1.592-1.168-2.892-1.987-3.654-0.689-0.644-1.5-0.948-2.387-0.88-0.934 0.101-1.777 0.73-2.374 1.775-0.429 0.749-0.746 1.812-0.719 2.813-1.49 0.186-2.653 1.561-2.649 3.239 0.001 0.663 0.188 1.305 0.531 1.845-0.341 0.542-0.524 1.185-0.522 1.847s0.188 1.304 0.531 1.844c-0.341 0.543-0.523 1.185-0.522 1.848 0.002 0.663 0.188 1.304 0.53 1.844-0.34 0.542-0.523 1.184-0.521 1.847 0.004 1.803 1.349 3.267 2.996 3.263h0.035l0.002 0.852-6.078 0.015c-0.587 0.002-1.062 0.479-1.061 1.066l0.068 28.173c0.001 0.588 0.479 1.062 1.065 1.061l20.436-0.049c0.587-0.002 1.062-0.479 1.061-1.065l-0.067-28.174C80.762 105.594 80.284 105.119 79.697 105.12zM73.149 89.087c0.093 0.062 0.193 0.11 0.299 0.144 2.276 0.707 3.868 2.942 3.874 5.437l0.004 1.602c0.005 2.158-1.182 4.124-2.972 5.08-0.111-3.355-0.431-8.305-1.324-12.323C73.068 89.04 73.107 89.06 73.149 89.087zM67.494 84.969c0.235-0.411 0.531-0.692 0.723-0.714 0.173-0.017 0.413 0.013 0.741 0.318 0.457 0.426 0.858 1.157 1.211 2.105l-3.122 0.008C67.027 86.207 67.168 85.54 67.494 84.969zM65.298 101.982c-0.362 0.001-0.669-0.434-0.671-0.948-0.001-0.365 0.162-0.703 0.416-0.864 0.339-0.214 0.541-0.582 0.54-0.983-0.001-0.4-0.204-0.768-0.546-0.98-0.254-0.159-0.418-0.497-0.419-0.862s0.162-0.704 0.415-0.864c0.339-0.214 0.541-0.581 0.54-0.984-0.001-0.4-0.204-0.768-0.545-0.981-0.254-0.158-0.418-0.496-0.419-0.86-0.001-0.365 0.161-0.705 0.415-0.864 0.34-0.215 0.541-0.583 0.541-0.984-0.001-0.401-0.206-0.768-0.546-0.981-0.254-0.158-0.418-0.497-0.419-0.862-0.002-0.514 0.304-0.949 0.666-0.95l5.58-0.014c0.85 3.652 1.276 8.735 1.399 12.969L65.298 101.982zM67.464 104.298l4.821-0.012c0.001 0.243 0 0.482-0.001 0.715l-0.001 0.137-4.816 0.012L67.464 104.298zM78.702 133.297l-18.31 0.044-0.062-26.048 1.003-0.002c7.376 2.994 13.389 1.276 16.357-0.04l0.949-0.002L78.702 133.297z" fill="#f2a1c4" data-fill-palette-color="quaternary"></path></svg></g></svg></g><g></g></svg></g></svg></g></svg></g></svg></g><defs></defs></svg><rect width="512" height="320" fill="none" stroke="none" visibility="hidden"></rect></g></svg></g></svg>